<svg width="21" height="21" viewBox="0 0 21 21" fill="none" xmlns="http://www.w3.org/2000/svg">
<path d="M13.935 10.302C11.9923 10.302 10.1994 10.835 8.86791 11.9026C7.53646 12.9703 6.69919 14.592 6.69922 16.5837V16.5853V16.5869C6.69941 16.6166 6.70246 18.3727 6.70246 18.3727L6.69922 20.7611H20.981L20.993 18.3727C20.993 18.3727 20.9954 17.5098 20.9962 17.1785C20.997 16.8473 21.0002 16.572 20.9994 16.5963V16.5899V16.5834C20.9994 14.3923 19.9905 12.7581 18.6079 11.747C17.2252 10.736 15.4975 10.3018 13.9362 10.3018L13.935 10.302ZM13.935 11.5072C15.2668 11.5072 16.7704 11.8985 17.8942 12.7202C19.018 13.542 19.793 14.7483 19.793 16.5837C19.7914 16.6707 19.7905 16.8491 19.7897 17.1737C19.7889 17.5052 19.7882 17.9379 19.7866 18.3695C19.7849 18.7988 19.7825 19.2261 19.7801 19.5558H7.91195C7.91034 19.2261 7.9079 18.7982 7.90709 18.3695C7.90468 17.5086 7.90471 16.678 7.90391 16.5837C7.90387 14.9183 8.5512 13.7002 9.62066 12.8426C10.6901 11.9851 12.214 11.5072 13.935 11.5072Z" fill="#032B48"/>
<path d="M13.9354 0C11.3978 0 9.32812 2.06618 9.32812 4.60102C9.32812 7.13585 11.3978 9.20361 13.9354 9.20361C16.473 9.20361 18.5443 7.13585 18.5443 4.60102C18.5443 2.06618 16.473 0 13.9354 0ZM13.9354 1.20518C15.8229 1.20518 17.3391 2.71868 17.3391 4.60102C17.3391 6.48337 15.8229 7.99843 13.9354 7.99843C12.048 7.99843 10.5333 6.48337 10.5333 4.60102C10.5333 2.71868 12.048 1.20518 13.9354 1.20518Z" fill="#032B48"/>
<path d="M6.37748 10.781C4.56673 10.7809 2.98474 11.2839 1.85022 12.2985C0.715695 13.313 0.0720327 14.8265 0.0722657 16.661V16.6626V16.6642C0.0724264 16.6962 0.0755023 18.4108 0.0755023 18.4108L0.0876148 20.7615H5.02038H5.68883V19.5563H5.02038H1.28402C1.28241 19.2351 1.28163 18.8243 1.28083 18.4092C1.27922 17.5631 1.27839 16.7376 1.27759 16.6579C1.27816 15.0978 1.78749 13.9725 2.65382 13.1977C3.52017 12.423 4.78773 11.9869 6.37449 11.9863C6.5538 11.9879 7.08526 12.0399 7.08526 12.0399C7.08526 12.0399 7.69863 11.3077 7.97669 10.9537L7.38195 10.8611C7.05096 10.8096 6.71589 10.783 6.38077 10.7811H6.37915L6.37748 10.781Z" fill="#032B48"/>
<path d="M6.31707 1.55467C4.02804 1.5386 2.14436 3.39089 2.129 5.67707C2.11342 7.96324 3.97188 9.84084 6.26092 9.85577C7.25116 9.86139 8.20644 9.51328 8.95879 8.88225C9.05021 8.80568 9.13776 8.72531 9.22252 8.64078L9.52852 8.33331L8.79804 7.36209L8.47492 7.69708C8.41571 7.75846 8.24964 7.9049 8.1851 7.95899C7.65085 8.4071 6.97113 8.65486 6.26749 8.65064C4.62848 8.63995 3.32305 7.31851 3.33418 5.68521C3.34519 4.0519 4.66835 2.7483 6.30736 2.7598C6.80706 2.76301 7.29887 2.89247 7.73439 3.13666L8.25969 3.43212C8.25969 3.43212 8.63649 2.44754 8.68952 2.2954L8.32374 2.0861C7.71065 1.74233 7.02014 1.55971 6.31707 1.55467Z" fill="#032B48"/>
</svg>
