<svg width="65" height="65" viewBox="0 0 65 65" fill="none" xmlns="http://www.w3.org/2000/svg">
<circle cx="32.5" cy="32.5" r="32.5" fill="#00B9FF" fill-opacity="0.2"/>
<path fill-rule="evenodd" clip-rule="evenodd" d="M32.5 48C41.0603 48 48 41.0603 48 32.5C48 23.9396 41.0603 17 32.5 17C23.9396 17 17 23.9396 17 32.5C17 41.0603 23.9396 48 32.5 48ZM33.6625 23.2C33.6625 22.558 33.142 22.0375 32.5 22.0375C31.858 22.0375 31.3375 22.558 31.3375 23.2V23.6909C28.8103 24.1434 26.6875 26.0421 26.6875 28.625C26.6875 31.5967 29.4973 33.6625 32.5 33.6625C34.6336 33.6625 35.9875 35.0663 35.9875 36.375C35.9875 37.6837 34.6336 39.0875 32.5 39.0875C30.3664 39.0875 29.0125 37.6837 29.0125 36.375C29.0125 35.733 28.492 35.2125 27.85 35.2125C27.208 35.2125 26.6875 35.733 26.6875 36.375C26.6875 38.9579 28.8103 40.8565 31.3375 41.3091V41.8C31.3375 42.442 31.858 42.9625 32.5 42.9625C33.142 42.9625 33.6625 42.442 33.6625 41.8V41.3091C36.1896 40.8565 38.3125 38.9579 38.3125 36.375C38.3125 33.4033 35.5027 31.3375 32.5 31.3375C30.3664 31.3375 29.0125 29.9337 29.0125 28.625C29.0125 27.3164 30.3664 25.9125 32.5 25.9125C34.6336 25.9125 35.9875 27.3164 35.9875 28.625C35.9875 29.267 36.508 29.7875 37.15 29.7875C37.792 29.7875 38.3125 29.267 38.3125 28.625C38.3125 26.0421 36.1896 24.1434 33.6625 23.6909V23.2Z" fill="#00B9FF"/>
</svg>
